%TF.GenerationSoftware,KiCad,Pcbnew,(5.1.9-0-10_14)*%
%TF.CreationDate,2021-02-02T14:33:23+08:00*%
%TF.ProjectId,WCH_Link,5743485f-4c69-46e6-9b2e-6b696361645f,rev?*%
%TF.SameCoordinates,Original*%
%TF.FileFunction,Copper,L2,Bot*%
%TF.FilePolarity,Positive*%
%FSLAX46Y46*%
G04 Gerber Fmt 4.6, Leading zero omitted, Abs format (unit mm)*
G04 Created by KiCad (PCBNEW (5.1.9-0-10_14)) date 2021-02-02 14:33:23*
%MOMM*%
%LPD*%
G01*
G04 APERTURE LIST*
%TA.AperFunction,ComponentPad*%
%ADD10O,1.700000X1.700000*%
%TD*%
%TA.AperFunction,ComponentPad*%
%ADD11R,1.700000X1.700000*%
%TD*%
%TA.AperFunction,ComponentPad*%
%ADD12O,1.000000X1.000000*%
%TD*%
%TA.AperFunction,ComponentPad*%
%ADD13R,1.000000X1.000000*%
%TD*%
%TA.AperFunction,ComponentPad*%
%ADD14O,1.000000X2.100000*%
%TD*%
%TA.AperFunction,ComponentPad*%
%ADD15O,1.000000X1.600000*%
%TD*%
%TA.AperFunction,ViaPad*%
%ADD16C,0.800000*%
%TD*%
%TA.AperFunction,Conductor*%
%ADD17C,0.250000*%
%TD*%
%TA.AperFunction,Conductor*%
%ADD18C,0.508000*%
%TD*%
%TA.AperFunction,Conductor*%
%ADD19C,0.152400*%
%TD*%
%TA.AperFunction,Conductor*%
%ADD20C,0.254000*%
%TD*%
%TA.AperFunction,Conductor*%
%ADD21C,0.100000*%
%TD*%
G04 APERTURE END LIST*
D10*
%TO.P,REF\u002A\u002A,6*%
%TO.N,+3V3*%
X131699000Y-68834000D03*
%TO.P,REF\u002A\u002A,5*%
%TO.N,/RX*%
X129159000Y-68834000D03*
%TO.P,REF\u002A\u002A,4*%
%TO.N,/TX*%
X126619000Y-68834000D03*
%TO.P,REF\u002A\u002A,3*%
%TO.N,/T_SWDIO*%
X124079000Y-68834000D03*
%TO.P,REF\u002A\u002A,2*%
%TO.N,/T_SWCLK*%
X121539000Y-68834000D03*
D11*
%TO.P,REF\u002A\u002A,1*%
%TO.N,GND*%
X118999000Y-68834000D03*
%TD*%
%TO.P,REF\u002A\u002A,1*%
%TO.N,+5V*%
X114681000Y-57531000D03*
D10*
%TO.P,REF\u002A\u002A,2*%
%TO.N,/T_SWDIO*%
X114681000Y-60071000D03*
%TO.P,REF\u002A\u002A,3*%
%TO.N,/T_SWCLK*%
X114681000Y-62611000D03*
%TO.P,REF\u002A\u002A,4*%
%TO.N,GND*%
X114681000Y-65151000D03*
%TD*%
%TO.P,REF\u002A\u002A,4*%
%TO.N,GND*%
X135763000Y-65151000D03*
%TO.P,REF\u002A\u002A,3*%
%TO.N,/RX*%
X135763000Y-62611000D03*
%TO.P,REF\u002A\u002A,2*%
%TO.N,/TX*%
X135763000Y-60071000D03*
D11*
%TO.P,REF\u002A\u002A,1*%
%TO.N,+3V3*%
X135763000Y-57531000D03*
%TD*%
D12*
%TO.P,J2,2*%
%TO.N,Net-(J2-Pad2)*%
X117221000Y-50927000D03*
D13*
%TO.P,J2,1*%
%TO.N,/USB_P*%
X117221000Y-52197000D03*
%TD*%
D14*
%TO.P,J1,S1*%
%TO.N,Net-(C1-Pad1)*%
X120521000Y-43897000D03*
X129161000Y-43897000D03*
D15*
X129161000Y-39717000D03*
X120521000Y-39717000D03*
%TD*%
D16*
%TO.N,GND*%
X121412000Y-63373000D03*
X121412000Y-61976000D03*
X120142000Y-62357000D03*
X124841000Y-57277000D03*
X121539000Y-56007000D03*
X125476000Y-40767000D03*
X130683000Y-61722000D03*
X130683000Y-62865000D03*
X131826000Y-61722000D03*
X133985000Y-67564000D03*
X133985000Y-68453000D03*
X133985000Y-69342000D03*
X132080000Y-40894000D03*
X133223000Y-40894000D03*
X134366000Y-40894000D03*
X124460000Y-38227000D03*
X125476000Y-38227000D03*
X126492000Y-38227000D03*
X116205000Y-67945000D03*
X117094000Y-66929000D03*
%TO.N,+5V*%
X124841000Y-50292000D03*
X133731000Y-48387000D03*
X127127000Y-60325000D03*
%TO.N,Net-(J1-PadA5)*%
X126111000Y-43307000D03*
X119253000Y-40894000D03*
%TO.N,/USB_N*%
X124587000Y-43036999D03*
X123825000Y-46609000D03*
%TO.N,Net-(J1-PadB5)*%
X123444000Y-43307000D03*
X119126000Y-43053000D03*
%TO.N,/TX*%
X132207000Y-55753000D03*
%TO.N,/RX*%
X131191000Y-55880000D03*
%TO.N,/TX*%
X133673749Y-61525251D03*
%TD*%
D17*
%TO.N,+5V*%
X124841000Y-50292000D02*
X131826000Y-50292000D01*
X131826000Y-50292000D02*
X133731000Y-48387000D01*
D18*
X117475000Y-60325000D02*
X115160010Y-58010010D01*
X127127000Y-60325000D02*
X117475000Y-60325000D01*
D17*
%TO.N,Net-(J1-PadA5)*%
X123698000Y-40894000D02*
X119253000Y-40894000D01*
X126111000Y-43307000D02*
X123698000Y-40894000D01*
D19*
%TO.N,/USB_N*%
X124587000Y-45847000D02*
X123825000Y-46609000D01*
X124587000Y-43036999D02*
X124587000Y-45847000D01*
D17*
%TO.N,Net-(J1-PadB5)*%
X119657010Y-42521990D02*
X119126000Y-43053000D01*
X122658990Y-42521990D02*
X119657010Y-42521990D01*
X123444000Y-43307000D02*
X122658990Y-42521990D01*
D19*
%TO.N,/TX*%
X135382000Y-60071000D02*
X135715790Y-60071000D01*
X132207000Y-56562210D02*
X135715790Y-60071000D01*
X132207000Y-55753000D02*
X132207000Y-56562210D01*
X133673749Y-61779251D02*
X133673749Y-61525251D01*
X126619000Y-68834000D02*
X133673749Y-61779251D01*
%TO.N,/RX*%
X131191000Y-58086210D02*
X135715790Y-62611000D01*
X131191000Y-55880000D02*
X131191000Y-58086210D01*
X135382000Y-62611000D02*
X135715790Y-62611000D01*
X129159000Y-68834000D02*
X135382000Y-62611000D01*
%TO.N,/T_SWCLK*%
X115316000Y-62611000D02*
X114728210Y-62611000D01*
X121539000Y-68834000D02*
X115316000Y-62611000D01*
%TO.N,/T_SWDIO*%
X115316000Y-60071000D02*
X114728210Y-60071000D01*
X124079000Y-68834000D02*
X115316000Y-60071000D01*
%TD*%
D20*
%TO.N,GND*%
X119166481Y-67467269D02*
X119126000Y-67507750D01*
X119126000Y-68707000D01*
X119146000Y-68707000D01*
X119146000Y-68961000D01*
X119126000Y-68961000D01*
X119126000Y-68981000D01*
X118872000Y-68981000D01*
X118872000Y-68961000D01*
X117672750Y-68961000D01*
X117514000Y-69119750D01*
X117510928Y-69684000D01*
X117523188Y-69808482D01*
X117528199Y-69825000D01*
X115087000Y-69825000D01*
X115087000Y-67984000D01*
X117510928Y-67984000D01*
X117514000Y-68548250D01*
X117672750Y-68707000D01*
X118872000Y-68707000D01*
X118872000Y-67507750D01*
X118713250Y-67349000D01*
X118149000Y-67345928D01*
X118024518Y-67358188D01*
X117904820Y-67394498D01*
X117794506Y-67453463D01*
X117697815Y-67532815D01*
X117618463Y-67629506D01*
X117559498Y-67739820D01*
X117523188Y-67859518D01*
X117510928Y-67984000D01*
X115087000Y-67984000D01*
X115087000Y-66575061D01*
X115312252Y-66495157D01*
X115562355Y-66346178D01*
X115778588Y-66151269D01*
X115952641Y-65917920D01*
X116077825Y-65655099D01*
X116122476Y-65507890D01*
X116001155Y-65278000D01*
X115087000Y-65278000D01*
X115087000Y-65024000D01*
X116001155Y-65024000D01*
X116122476Y-64794110D01*
X116077825Y-64646901D01*
X115952641Y-64384080D01*
X115778588Y-64150731D01*
X115562355Y-63955822D01*
X115445466Y-63886195D01*
X115529355Y-63830142D01*
X119166481Y-67467269D01*
%TA.AperFunction,Conductor*%
D21*
G36*
X119166481Y-67467269D02*
G01*
X119126000Y-67507750D01*
X119126000Y-68707000D01*
X119146000Y-68707000D01*
X119146000Y-68961000D01*
X119126000Y-68961000D01*
X119126000Y-68981000D01*
X118872000Y-68981000D01*
X118872000Y-68961000D01*
X117672750Y-68961000D01*
X117514000Y-69119750D01*
X117510928Y-69684000D01*
X117523188Y-69808482D01*
X117528199Y-69825000D01*
X115087000Y-69825000D01*
X115087000Y-67984000D01*
X117510928Y-67984000D01*
X117514000Y-68548250D01*
X117672750Y-68707000D01*
X118872000Y-68707000D01*
X118872000Y-67507750D01*
X118713250Y-67349000D01*
X118149000Y-67345928D01*
X118024518Y-67358188D01*
X117904820Y-67394498D01*
X117794506Y-67453463D01*
X117697815Y-67532815D01*
X117618463Y-67629506D01*
X117559498Y-67739820D01*
X117523188Y-67859518D01*
X117510928Y-67984000D01*
X115087000Y-67984000D01*
X115087000Y-66575061D01*
X115312252Y-66495157D01*
X115562355Y-66346178D01*
X115778588Y-66151269D01*
X115952641Y-65917920D01*
X116077825Y-65655099D01*
X116122476Y-65507890D01*
X116001155Y-65278000D01*
X115087000Y-65278000D01*
X115087000Y-65024000D01*
X116001155Y-65024000D01*
X116122476Y-64794110D01*
X116077825Y-64646901D01*
X115952641Y-64384080D01*
X115778588Y-64150731D01*
X115562355Y-63955822D01*
X115445466Y-63886195D01*
X115529355Y-63830142D01*
X119166481Y-67467269D01*
G37*
%TD.AperFunction*%
D20*
X134366175Y-64646901D02*
X134321524Y-64794110D01*
X134442845Y-65024000D01*
X135357001Y-65024000D01*
X135357001Y-65278000D01*
X134442845Y-65278000D01*
X134321524Y-65507890D01*
X134366175Y-65655099D01*
X134491359Y-65917920D01*
X134665412Y-66151269D01*
X134881645Y-66346178D01*
X135131748Y-66495157D01*
X135357001Y-66575061D01*
X135357001Y-69825000D01*
X132808107Y-69825000D01*
X132852475Y-69780632D01*
X133014990Y-69537411D01*
X133126932Y-69267158D01*
X133184000Y-68980260D01*
X133184000Y-68687740D01*
X133126932Y-68400842D01*
X133014990Y-68130589D01*
X132852475Y-67887368D01*
X132645632Y-67680525D01*
X132402411Y-67518010D01*
X132132158Y-67406068D01*
X131845260Y-67349000D01*
X131649787Y-67349000D01*
X134379170Y-64619617D01*
X134366175Y-64646901D01*
%TA.AperFunction,Conductor*%
D21*
G36*
X134366175Y-64646901D02*
G01*
X134321524Y-64794110D01*
X134442845Y-65024000D01*
X135357001Y-65024000D01*
X135357001Y-65278000D01*
X134442845Y-65278000D01*
X134321524Y-65507890D01*
X134366175Y-65655099D01*
X134491359Y-65917920D01*
X134665412Y-66151269D01*
X134881645Y-66346178D01*
X135131748Y-66495157D01*
X135357001Y-66575061D01*
X135357001Y-69825000D01*
X132808107Y-69825000D01*
X132852475Y-69780632D01*
X133014990Y-69537411D01*
X133126932Y-69267158D01*
X133184000Y-68980260D01*
X133184000Y-68687740D01*
X133126932Y-68400842D01*
X133014990Y-68130589D01*
X132852475Y-67887368D01*
X132645632Y-67680525D01*
X132402411Y-67518010D01*
X132132158Y-67406068D01*
X131845260Y-67349000D01*
X131649787Y-67349000D01*
X134379170Y-64619617D01*
X134366175Y-64646901D01*
G37*
%TD.AperFunction*%
D20*
X135357001Y-56042928D02*
X134913000Y-56042928D01*
X134788518Y-56055188D01*
X134668820Y-56091498D01*
X134558506Y-56150463D01*
X134461815Y-56229815D01*
X134382463Y-56326506D01*
X134323498Y-56436820D01*
X134287188Y-56556518D01*
X134274928Y-56681000D01*
X134274928Y-57624350D01*
X133031931Y-56381354D01*
X133124205Y-56243256D01*
X133202226Y-56054898D01*
X133242000Y-55854939D01*
X133242000Y-55651061D01*
X133202226Y-55451102D01*
X133124205Y-55262744D01*
X133010937Y-55093226D01*
X132866774Y-54949063D01*
X132697256Y-54835795D01*
X132508898Y-54757774D01*
X132308939Y-54718000D01*
X132105061Y-54718000D01*
X131905102Y-54757774D01*
X131716744Y-54835795D01*
X131585831Y-54923268D01*
X131492898Y-54884774D01*
X131292939Y-54845000D01*
X131089061Y-54845000D01*
X130889102Y-54884774D01*
X130700744Y-54962795D01*
X130531226Y-55076063D01*
X130387063Y-55220226D01*
X130273795Y-55389744D01*
X130195774Y-55578102D01*
X130156000Y-55778061D01*
X130156000Y-55981939D01*
X130195774Y-56181898D01*
X130273795Y-56370256D01*
X130387063Y-56539774D01*
X130479800Y-56632511D01*
X130479801Y-58051274D01*
X130476360Y-58086210D01*
X130479801Y-58121146D01*
X130490092Y-58225630D01*
X130530759Y-58359691D01*
X130596799Y-58483243D01*
X130685674Y-58591537D01*
X130712810Y-58613807D01*
X132917146Y-60818143D01*
X132869812Y-60865477D01*
X132756544Y-61034995D01*
X132678523Y-61223353D01*
X132638749Y-61423312D01*
X132638749Y-61627190D01*
X132668824Y-61778387D01*
X127042972Y-67404241D01*
X126765260Y-67349000D01*
X126472740Y-67349000D01*
X126185842Y-67406068D01*
X125915589Y-67518010D01*
X125672368Y-67680525D01*
X125465525Y-67887368D01*
X125349000Y-68061760D01*
X125232475Y-67887368D01*
X125025632Y-67680525D01*
X124782411Y-67518010D01*
X124512158Y-67406068D01*
X124225260Y-67349000D01*
X123932740Y-67349000D01*
X123655029Y-67404241D01*
X117468442Y-61217654D01*
X117474999Y-61218300D01*
X117518659Y-61214000D01*
X126594532Y-61214000D01*
X126636744Y-61242205D01*
X126825102Y-61320226D01*
X127025061Y-61360000D01*
X127228939Y-61360000D01*
X127428898Y-61320226D01*
X127617256Y-61242205D01*
X127786774Y-61128937D01*
X127930937Y-60984774D01*
X128044205Y-60815256D01*
X128122226Y-60626898D01*
X128162000Y-60426939D01*
X128162000Y-60223061D01*
X128122226Y-60023102D01*
X128044205Y-59834744D01*
X127930937Y-59665226D01*
X127786774Y-59521063D01*
X127617256Y-59407795D01*
X127428898Y-59329774D01*
X127228939Y-59290000D01*
X127025061Y-59290000D01*
X126825102Y-59329774D01*
X126636744Y-59407795D01*
X126594532Y-59436000D01*
X117843235Y-59436000D01*
X116169072Y-57761837D01*
X116169072Y-56681000D01*
X116156812Y-56556518D01*
X116120502Y-56436820D01*
X116061537Y-56326506D01*
X115982185Y-56229815D01*
X115885494Y-56150463D01*
X115775180Y-56091498D01*
X115655482Y-56055188D01*
X115531000Y-56042928D01*
X115087000Y-56042928D01*
X115087000Y-51697000D01*
X116082928Y-51697000D01*
X116082928Y-52697000D01*
X116095188Y-52821482D01*
X116131498Y-52941180D01*
X116190463Y-53051494D01*
X116269815Y-53148185D01*
X116366506Y-53227537D01*
X116476820Y-53286502D01*
X116596518Y-53322812D01*
X116721000Y-53335072D01*
X117721000Y-53335072D01*
X117845482Y-53322812D01*
X117965180Y-53286502D01*
X118075494Y-53227537D01*
X118172185Y-53148185D01*
X118251537Y-53051494D01*
X118310502Y-52941180D01*
X118346812Y-52821482D01*
X118359072Y-52697000D01*
X118359072Y-51697000D01*
X118346812Y-51572518D01*
X118310502Y-51452820D01*
X118266112Y-51369774D01*
X118312383Y-51258067D01*
X118356000Y-51038788D01*
X118356000Y-50815212D01*
X118312383Y-50595933D01*
X118226824Y-50389376D01*
X118102612Y-50203480D01*
X118089193Y-50190061D01*
X123806000Y-50190061D01*
X123806000Y-50393939D01*
X123845774Y-50593898D01*
X123923795Y-50782256D01*
X124037063Y-50951774D01*
X124181226Y-51095937D01*
X124350744Y-51209205D01*
X124539102Y-51287226D01*
X124739061Y-51327000D01*
X124942939Y-51327000D01*
X125142898Y-51287226D01*
X125331256Y-51209205D01*
X125500774Y-51095937D01*
X125544711Y-51052000D01*
X131788678Y-51052000D01*
X131826000Y-51055676D01*
X131863322Y-51052000D01*
X131863333Y-51052000D01*
X131974986Y-51041003D01*
X132118247Y-50997546D01*
X132250276Y-50926974D01*
X132366001Y-50832001D01*
X132389804Y-50802997D01*
X133770802Y-49422000D01*
X133832939Y-49422000D01*
X134032898Y-49382226D01*
X134221256Y-49304205D01*
X134390774Y-49190937D01*
X134534937Y-49046774D01*
X134648205Y-48877256D01*
X134726226Y-48688898D01*
X134766000Y-48488939D01*
X134766000Y-48285061D01*
X134726226Y-48085102D01*
X134648205Y-47896744D01*
X134534937Y-47727226D01*
X134390774Y-47583063D01*
X134221256Y-47469795D01*
X134032898Y-47391774D01*
X133832939Y-47352000D01*
X133629061Y-47352000D01*
X133429102Y-47391774D01*
X133240744Y-47469795D01*
X133071226Y-47583063D01*
X132927063Y-47727226D01*
X132813795Y-47896744D01*
X132735774Y-48085102D01*
X132696000Y-48285061D01*
X132696000Y-48347198D01*
X131511199Y-49532000D01*
X125544711Y-49532000D01*
X125500774Y-49488063D01*
X125331256Y-49374795D01*
X125142898Y-49296774D01*
X124942939Y-49257000D01*
X124739061Y-49257000D01*
X124539102Y-49296774D01*
X124350744Y-49374795D01*
X124181226Y-49488063D01*
X124037063Y-49632226D01*
X123923795Y-49801744D01*
X123845774Y-49990102D01*
X123806000Y-50190061D01*
X118089193Y-50190061D01*
X117944520Y-50045388D01*
X117758624Y-49921176D01*
X117552067Y-49835617D01*
X117332788Y-49792000D01*
X117109212Y-49792000D01*
X116889933Y-49835617D01*
X116683376Y-49921176D01*
X116497480Y-50045388D01*
X116339388Y-50203480D01*
X116215176Y-50389376D01*
X116129617Y-50595933D01*
X116086000Y-50815212D01*
X116086000Y-51038788D01*
X116129617Y-51258067D01*
X116175888Y-51369774D01*
X116131498Y-51452820D01*
X116095188Y-51572518D01*
X116082928Y-51697000D01*
X115087000Y-51697000D01*
X115087000Y-42951061D01*
X118091000Y-42951061D01*
X118091000Y-43154939D01*
X118130774Y-43354898D01*
X118208795Y-43543256D01*
X118322063Y-43712774D01*
X118466226Y-43856937D01*
X118635744Y-43970205D01*
X118824102Y-44048226D01*
X119024061Y-44088000D01*
X119227939Y-44088000D01*
X119386000Y-44056560D01*
X119386000Y-44502751D01*
X119402423Y-44669498D01*
X119467324Y-44883446D01*
X119572716Y-45080623D01*
X119714551Y-45253449D01*
X119887377Y-45395284D01*
X120084553Y-45500676D01*
X120298501Y-45565577D01*
X120521000Y-45587491D01*
X120743498Y-45565577D01*
X120957446Y-45500676D01*
X121154623Y-45395284D01*
X121327449Y-45253449D01*
X121469284Y-45080623D01*
X121574676Y-44883447D01*
X121639577Y-44669499D01*
X121656000Y-44502752D01*
X121656000Y-44283904D01*
X121670978Y-44290108D01*
X121856448Y-44327000D01*
X122045552Y-44327000D01*
X122231022Y-44290108D01*
X122405731Y-44217741D01*
X122562964Y-44112681D01*
X122674467Y-44001178D01*
X122784226Y-44110937D01*
X122953744Y-44224205D01*
X123142102Y-44302226D01*
X123342061Y-44342000D01*
X123545939Y-44342000D01*
X123745898Y-44302226D01*
X123875800Y-44248418D01*
X123875801Y-45552411D01*
X123854212Y-45574000D01*
X123723061Y-45574000D01*
X123523102Y-45613774D01*
X123334744Y-45691795D01*
X123165226Y-45805063D01*
X123021063Y-45949226D01*
X122907795Y-46118744D01*
X122829774Y-46307102D01*
X122790000Y-46507061D01*
X122790000Y-46710939D01*
X122829774Y-46910898D01*
X122907795Y-47099256D01*
X123021063Y-47268774D01*
X123165226Y-47412937D01*
X123334744Y-47526205D01*
X123523102Y-47604226D01*
X123723061Y-47644000D01*
X123926939Y-47644000D01*
X124126898Y-47604226D01*
X124315256Y-47526205D01*
X124484774Y-47412937D01*
X124628937Y-47268774D01*
X124742205Y-47099256D01*
X124820226Y-46910898D01*
X124860000Y-46710939D01*
X124860000Y-46579788D01*
X125065196Y-46374593D01*
X125092327Y-46352327D01*
X125114593Y-46325196D01*
X125114598Y-46325191D01*
X125181202Y-46244033D01*
X125247242Y-46120482D01*
X125287909Y-45986420D01*
X125291572Y-45949226D01*
X125298200Y-45881936D01*
X125298200Y-45881929D01*
X125301640Y-45847000D01*
X125298200Y-45812072D01*
X125298200Y-43953510D01*
X125307063Y-43966774D01*
X125451226Y-44110937D01*
X125620744Y-44224205D01*
X125809102Y-44302226D01*
X126009061Y-44342000D01*
X126212939Y-44342000D01*
X126412898Y-44302226D01*
X126601256Y-44224205D01*
X126770774Y-44110937D01*
X126914937Y-43966774D01*
X126946055Y-43920202D01*
X126985319Y-43978964D01*
X127119036Y-44112681D01*
X127276269Y-44217741D01*
X127450978Y-44290108D01*
X127636448Y-44327000D01*
X127825552Y-44327000D01*
X128011022Y-44290108D01*
X128026000Y-44283904D01*
X128026000Y-44502751D01*
X128042423Y-44669498D01*
X128107324Y-44883446D01*
X128212716Y-45080623D01*
X128354551Y-45253449D01*
X128527377Y-45395284D01*
X128724553Y-45500676D01*
X128938501Y-45565577D01*
X129161000Y-45587491D01*
X129383498Y-45565577D01*
X129597446Y-45500676D01*
X129794623Y-45395284D01*
X129967449Y-45253449D01*
X130109284Y-45080623D01*
X130214676Y-44883447D01*
X130279577Y-44669499D01*
X130296000Y-44502752D01*
X130296000Y-43291248D01*
X130279577Y-43124501D01*
X130214676Y-42910553D01*
X130109284Y-42713377D01*
X129967449Y-42540551D01*
X129794623Y-42398716D01*
X129597447Y-42293324D01*
X129383499Y-42228423D01*
X129161000Y-42206509D01*
X128938502Y-42228423D01*
X128724554Y-42293324D01*
X128527378Y-42398716D01*
X128354552Y-42540551D01*
X128307638Y-42597715D01*
X128185731Y-42516259D01*
X128011022Y-42443892D01*
X127825552Y-42407000D01*
X127636448Y-42407000D01*
X127450978Y-42443892D01*
X127276269Y-42516259D01*
X127119036Y-42621319D01*
X126986311Y-42754044D01*
X126914937Y-42647226D01*
X126770774Y-42503063D01*
X126601256Y-42389795D01*
X126412898Y-42311774D01*
X126212939Y-42272000D01*
X126150802Y-42272000D01*
X124261804Y-40383003D01*
X124238001Y-40353999D01*
X124122276Y-40259026D01*
X123990247Y-40188454D01*
X123846986Y-40144997D01*
X123735333Y-40134000D01*
X123735322Y-40134000D01*
X123698000Y-40130324D01*
X123660678Y-40134000D01*
X121649968Y-40134000D01*
X121656000Y-40072752D01*
X121656000Y-39361249D01*
X121656000Y-39361248D01*
X128026000Y-39361248D01*
X128026000Y-40072751D01*
X128042423Y-40239498D01*
X128107324Y-40453446D01*
X128212716Y-40650623D01*
X128354551Y-40823449D01*
X128527377Y-40965284D01*
X128724553Y-41070676D01*
X128938501Y-41135577D01*
X129161000Y-41157491D01*
X129383498Y-41135577D01*
X129597446Y-41070676D01*
X129794623Y-40965284D01*
X129967449Y-40823449D01*
X130109284Y-40650623D01*
X130214676Y-40453447D01*
X130279577Y-40239499D01*
X130296000Y-40072752D01*
X130296000Y-39361249D01*
X130279577Y-39194502D01*
X130214676Y-38980554D01*
X130109284Y-38783377D01*
X129967449Y-38610551D01*
X129794623Y-38468716D01*
X129597447Y-38363324D01*
X129383499Y-38298423D01*
X129161000Y-38276509D01*
X128938502Y-38298423D01*
X128724554Y-38363324D01*
X128527378Y-38468716D01*
X128354552Y-38610551D01*
X128212717Y-38783377D01*
X128107324Y-38980553D01*
X128042423Y-39194501D01*
X128026000Y-39361248D01*
X121656000Y-39361248D01*
X121639577Y-39194502D01*
X121574676Y-38980554D01*
X121469284Y-38783377D01*
X121327449Y-38610551D01*
X121154623Y-38468716D01*
X120957447Y-38363324D01*
X120743499Y-38298423D01*
X120521000Y-38276509D01*
X120298502Y-38298423D01*
X120084554Y-38363324D01*
X119887378Y-38468716D01*
X119714552Y-38610551D01*
X119572717Y-38783377D01*
X119467324Y-38980553D01*
X119402423Y-39194501D01*
X119386000Y-39361248D01*
X119386000Y-39865178D01*
X119354939Y-39859000D01*
X119151061Y-39859000D01*
X118951102Y-39898774D01*
X118762744Y-39976795D01*
X118593226Y-40090063D01*
X118449063Y-40234226D01*
X118335795Y-40403744D01*
X118257774Y-40592102D01*
X118218000Y-40792061D01*
X118218000Y-40995939D01*
X118257774Y-41195898D01*
X118335795Y-41384256D01*
X118449063Y-41553774D01*
X118593226Y-41697937D01*
X118762744Y-41811205D01*
X118951102Y-41889226D01*
X119151061Y-41929000D01*
X119181576Y-41929000D01*
X119117009Y-41981989D01*
X119093210Y-42010988D01*
X119086198Y-42018000D01*
X119024061Y-42018000D01*
X118824102Y-42057774D01*
X118635744Y-42135795D01*
X118466226Y-42249063D01*
X118322063Y-42393226D01*
X118208795Y-42562744D01*
X118130774Y-42751102D01*
X118091000Y-42951061D01*
X115087000Y-42951061D01*
X115087000Y-37744000D01*
X135357000Y-37744000D01*
X135357001Y-56042928D01*
%TA.AperFunction,Conductor*%
D21*
G36*
X135357001Y-56042928D02*
G01*
X134913000Y-56042928D01*
X134788518Y-56055188D01*
X134668820Y-56091498D01*
X134558506Y-56150463D01*
X134461815Y-56229815D01*
X134382463Y-56326506D01*
X134323498Y-56436820D01*
X134287188Y-56556518D01*
X134274928Y-56681000D01*
X134274928Y-57624350D01*
X133031931Y-56381354D01*
X133124205Y-56243256D01*
X133202226Y-56054898D01*
X133242000Y-55854939D01*
X133242000Y-55651061D01*
X133202226Y-55451102D01*
X133124205Y-55262744D01*
X133010937Y-55093226D01*
X132866774Y-54949063D01*
X132697256Y-54835795D01*
X132508898Y-54757774D01*
X132308939Y-54718000D01*
X132105061Y-54718000D01*
X131905102Y-54757774D01*
X131716744Y-54835795D01*
X131585831Y-54923268D01*
X131492898Y-54884774D01*
X131292939Y-54845000D01*
X131089061Y-54845000D01*
X130889102Y-54884774D01*
X130700744Y-54962795D01*
X130531226Y-55076063D01*
X130387063Y-55220226D01*
X130273795Y-55389744D01*
X130195774Y-55578102D01*
X130156000Y-55778061D01*
X130156000Y-55981939D01*
X130195774Y-56181898D01*
X130273795Y-56370256D01*
X130387063Y-56539774D01*
X130479800Y-56632511D01*
X130479801Y-58051274D01*
X130476360Y-58086210D01*
X130479801Y-58121146D01*
X130490092Y-58225630D01*
X130530759Y-58359691D01*
X130596799Y-58483243D01*
X130685674Y-58591537D01*
X130712810Y-58613807D01*
X132917146Y-60818143D01*
X132869812Y-60865477D01*
X132756544Y-61034995D01*
X132678523Y-61223353D01*
X132638749Y-61423312D01*
X132638749Y-61627190D01*
X132668824Y-61778387D01*
X127042972Y-67404241D01*
X126765260Y-67349000D01*
X126472740Y-67349000D01*
X126185842Y-67406068D01*
X125915589Y-67518010D01*
X125672368Y-67680525D01*
X125465525Y-67887368D01*
X125349000Y-68061760D01*
X125232475Y-67887368D01*
X125025632Y-67680525D01*
X124782411Y-67518010D01*
X124512158Y-67406068D01*
X124225260Y-67349000D01*
X123932740Y-67349000D01*
X123655029Y-67404241D01*
X117468442Y-61217654D01*
X117474999Y-61218300D01*
X117518659Y-61214000D01*
X126594532Y-61214000D01*
X126636744Y-61242205D01*
X126825102Y-61320226D01*
X127025061Y-61360000D01*
X127228939Y-61360000D01*
X127428898Y-61320226D01*
X127617256Y-61242205D01*
X127786774Y-61128937D01*
X127930937Y-60984774D01*
X128044205Y-60815256D01*
X128122226Y-60626898D01*
X128162000Y-60426939D01*
X128162000Y-60223061D01*
X128122226Y-60023102D01*
X128044205Y-59834744D01*
X127930937Y-59665226D01*
X127786774Y-59521063D01*
X127617256Y-59407795D01*
X127428898Y-59329774D01*
X127228939Y-59290000D01*
X127025061Y-59290000D01*
X126825102Y-59329774D01*
X126636744Y-59407795D01*
X126594532Y-59436000D01*
X117843235Y-59436000D01*
X116169072Y-57761837D01*
X116169072Y-56681000D01*
X116156812Y-56556518D01*
X116120502Y-56436820D01*
X116061537Y-56326506D01*
X115982185Y-56229815D01*
X115885494Y-56150463D01*
X115775180Y-56091498D01*
X115655482Y-56055188D01*
X115531000Y-56042928D01*
X115087000Y-56042928D01*
X115087000Y-51697000D01*
X116082928Y-51697000D01*
X116082928Y-52697000D01*
X116095188Y-52821482D01*
X116131498Y-52941180D01*
X116190463Y-53051494D01*
X116269815Y-53148185D01*
X116366506Y-53227537D01*
X116476820Y-53286502D01*
X116596518Y-53322812D01*
X116721000Y-53335072D01*
X117721000Y-53335072D01*
X117845482Y-53322812D01*
X117965180Y-53286502D01*
X118075494Y-53227537D01*
X118172185Y-53148185D01*
X118251537Y-53051494D01*
X118310502Y-52941180D01*
X118346812Y-52821482D01*
X118359072Y-52697000D01*
X118359072Y-51697000D01*
X118346812Y-51572518D01*
X118310502Y-51452820D01*
X118266112Y-51369774D01*
X118312383Y-51258067D01*
X118356000Y-51038788D01*
X118356000Y-50815212D01*
X118312383Y-50595933D01*
X118226824Y-50389376D01*
X118102612Y-50203480D01*
X118089193Y-50190061D01*
X123806000Y-50190061D01*
X123806000Y-50393939D01*
X123845774Y-50593898D01*
X123923795Y-50782256D01*
X124037063Y-50951774D01*
X124181226Y-51095937D01*
X124350744Y-51209205D01*
X124539102Y-51287226D01*
X124739061Y-51327000D01*
X124942939Y-51327000D01*
X125142898Y-51287226D01*
X125331256Y-51209205D01*
X125500774Y-51095937D01*
X125544711Y-51052000D01*
X131788678Y-51052000D01*
X131826000Y-51055676D01*
X131863322Y-51052000D01*
X131863333Y-51052000D01*
X131974986Y-51041003D01*
X132118247Y-50997546D01*
X132250276Y-50926974D01*
X132366001Y-50832001D01*
X132389804Y-50802997D01*
X133770802Y-49422000D01*
X133832939Y-49422000D01*
X134032898Y-49382226D01*
X134221256Y-49304205D01*
X134390774Y-49190937D01*
X134534937Y-49046774D01*
X134648205Y-48877256D01*
X134726226Y-48688898D01*
X134766000Y-48488939D01*
X134766000Y-48285061D01*
X134726226Y-48085102D01*
X134648205Y-47896744D01*
X134534937Y-47727226D01*
X134390774Y-47583063D01*
X134221256Y-47469795D01*
X134032898Y-47391774D01*
X133832939Y-47352000D01*
X133629061Y-47352000D01*
X133429102Y-47391774D01*
X133240744Y-47469795D01*
X133071226Y-47583063D01*
X132927063Y-47727226D01*
X132813795Y-47896744D01*
X132735774Y-48085102D01*
X132696000Y-48285061D01*
X132696000Y-48347198D01*
X131511199Y-49532000D01*
X125544711Y-49532000D01*
X125500774Y-49488063D01*
X125331256Y-49374795D01*
X125142898Y-49296774D01*
X124942939Y-49257000D01*
X124739061Y-49257000D01*
X124539102Y-49296774D01*
X124350744Y-49374795D01*
X124181226Y-49488063D01*
X124037063Y-49632226D01*
X123923795Y-49801744D01*
X123845774Y-49990102D01*
X123806000Y-50190061D01*
X118089193Y-50190061D01*
X117944520Y-50045388D01*
X117758624Y-49921176D01*
X117552067Y-49835617D01*
X117332788Y-49792000D01*
X117109212Y-49792000D01*
X116889933Y-49835617D01*
X116683376Y-49921176D01*
X116497480Y-50045388D01*
X116339388Y-50203480D01*
X116215176Y-50389376D01*
X116129617Y-50595933D01*
X116086000Y-50815212D01*
X116086000Y-51038788D01*
X116129617Y-51258067D01*
X116175888Y-51369774D01*
X116131498Y-51452820D01*
X116095188Y-51572518D01*
X116082928Y-51697000D01*
X115087000Y-51697000D01*
X115087000Y-42951061D01*
X118091000Y-42951061D01*
X118091000Y-43154939D01*
X118130774Y-43354898D01*
X118208795Y-43543256D01*
X118322063Y-43712774D01*
X118466226Y-43856937D01*
X118635744Y-43970205D01*
X118824102Y-44048226D01*
X119024061Y-44088000D01*
X119227939Y-44088000D01*
X119386000Y-44056560D01*
X119386000Y-44502751D01*
X119402423Y-44669498D01*
X119467324Y-44883446D01*
X119572716Y-45080623D01*
X119714551Y-45253449D01*
X119887377Y-45395284D01*
X120084553Y-45500676D01*
X120298501Y-45565577D01*
X120521000Y-45587491D01*
X120743498Y-45565577D01*
X120957446Y-45500676D01*
X121154623Y-45395284D01*
X121327449Y-45253449D01*
X121469284Y-45080623D01*
X121574676Y-44883447D01*
X121639577Y-44669499D01*
X121656000Y-44502752D01*
X121656000Y-44283904D01*
X121670978Y-44290108D01*
X121856448Y-44327000D01*
X122045552Y-44327000D01*
X122231022Y-44290108D01*
X122405731Y-44217741D01*
X122562964Y-44112681D01*
X122674467Y-44001178D01*
X122784226Y-44110937D01*
X122953744Y-44224205D01*
X123142102Y-44302226D01*
X123342061Y-44342000D01*
X123545939Y-44342000D01*
X123745898Y-44302226D01*
X123875800Y-44248418D01*
X123875801Y-45552411D01*
X123854212Y-45574000D01*
X123723061Y-45574000D01*
X123523102Y-45613774D01*
X123334744Y-45691795D01*
X123165226Y-45805063D01*
X123021063Y-45949226D01*
X122907795Y-46118744D01*
X122829774Y-46307102D01*
X122790000Y-46507061D01*
X122790000Y-46710939D01*
X122829774Y-46910898D01*
X122907795Y-47099256D01*
X123021063Y-47268774D01*
X123165226Y-47412937D01*
X123334744Y-47526205D01*
X123523102Y-47604226D01*
X123723061Y-47644000D01*
X123926939Y-47644000D01*
X124126898Y-47604226D01*
X124315256Y-47526205D01*
X124484774Y-47412937D01*
X124628937Y-47268774D01*
X124742205Y-47099256D01*
X124820226Y-46910898D01*
X124860000Y-46710939D01*
X124860000Y-46579788D01*
X125065196Y-46374593D01*
X125092327Y-46352327D01*
X125114593Y-46325196D01*
X125114598Y-46325191D01*
X125181202Y-46244033D01*
X125247242Y-46120482D01*
X125287909Y-45986420D01*
X125291572Y-45949226D01*
X125298200Y-45881936D01*
X125298200Y-45881929D01*
X125301640Y-45847000D01*
X125298200Y-45812072D01*
X125298200Y-43953510D01*
X125307063Y-43966774D01*
X125451226Y-44110937D01*
X125620744Y-44224205D01*
X125809102Y-44302226D01*
X126009061Y-44342000D01*
X126212939Y-44342000D01*
X126412898Y-44302226D01*
X126601256Y-44224205D01*
X126770774Y-44110937D01*
X126914937Y-43966774D01*
X126946055Y-43920202D01*
X126985319Y-43978964D01*
X127119036Y-44112681D01*
X127276269Y-44217741D01*
X127450978Y-44290108D01*
X127636448Y-44327000D01*
X127825552Y-44327000D01*
X128011022Y-44290108D01*
X128026000Y-44283904D01*
X128026000Y-44502751D01*
X128042423Y-44669498D01*
X128107324Y-44883446D01*
X128212716Y-45080623D01*
X128354551Y-45253449D01*
X128527377Y-45395284D01*
X128724553Y-45500676D01*
X128938501Y-45565577D01*
X129161000Y-45587491D01*
X129383498Y-45565577D01*
X129597446Y-45500676D01*
X129794623Y-45395284D01*
X129967449Y-45253449D01*
X130109284Y-45080623D01*
X130214676Y-44883447D01*
X130279577Y-44669499D01*
X130296000Y-44502752D01*
X130296000Y-43291248D01*
X130279577Y-43124501D01*
X130214676Y-42910553D01*
X130109284Y-42713377D01*
X129967449Y-42540551D01*
X129794623Y-42398716D01*
X129597447Y-42293324D01*
X129383499Y-42228423D01*
X129161000Y-42206509D01*
X128938502Y-42228423D01*
X128724554Y-42293324D01*
X128527378Y-42398716D01*
X128354552Y-42540551D01*
X128307638Y-42597715D01*
X128185731Y-42516259D01*
X128011022Y-42443892D01*
X127825552Y-42407000D01*
X127636448Y-42407000D01*
X127450978Y-42443892D01*
X127276269Y-42516259D01*
X127119036Y-42621319D01*
X126986311Y-42754044D01*
X126914937Y-42647226D01*
X126770774Y-42503063D01*
X126601256Y-42389795D01*
X126412898Y-42311774D01*
X126212939Y-42272000D01*
X126150802Y-42272000D01*
X124261804Y-40383003D01*
X124238001Y-40353999D01*
X124122276Y-40259026D01*
X123990247Y-40188454D01*
X123846986Y-40144997D01*
X123735333Y-40134000D01*
X123735322Y-40134000D01*
X123698000Y-40130324D01*
X123660678Y-40134000D01*
X121649968Y-40134000D01*
X121656000Y-40072752D01*
X121656000Y-39361249D01*
X121656000Y-39361248D01*
X128026000Y-39361248D01*
X128026000Y-40072751D01*
X128042423Y-40239498D01*
X128107324Y-40453446D01*
X128212716Y-40650623D01*
X128354551Y-40823449D01*
X128527377Y-40965284D01*
X128724553Y-41070676D01*
X128938501Y-41135577D01*
X129161000Y-41157491D01*
X129383498Y-41135577D01*
X129597446Y-41070676D01*
X129794623Y-40965284D01*
X129967449Y-40823449D01*
X130109284Y-40650623D01*
X130214676Y-40453447D01*
X130279577Y-40239499D01*
X130296000Y-40072752D01*
X130296000Y-39361249D01*
X130279577Y-39194502D01*
X130214676Y-38980554D01*
X130109284Y-38783377D01*
X129967449Y-38610551D01*
X129794623Y-38468716D01*
X129597447Y-38363324D01*
X129383499Y-38298423D01*
X129161000Y-38276509D01*
X128938502Y-38298423D01*
X128724554Y-38363324D01*
X128527378Y-38468716D01*
X128354552Y-38610551D01*
X128212717Y-38783377D01*
X128107324Y-38980553D01*
X128042423Y-39194501D01*
X128026000Y-39361248D01*
X121656000Y-39361248D01*
X121639577Y-39194502D01*
X121574676Y-38980554D01*
X121469284Y-38783377D01*
X121327449Y-38610551D01*
X121154623Y-38468716D01*
X120957447Y-38363324D01*
X120743499Y-38298423D01*
X120521000Y-38276509D01*
X120298502Y-38298423D01*
X120084554Y-38363324D01*
X119887378Y-38468716D01*
X119714552Y-38610551D01*
X119572717Y-38783377D01*
X119467324Y-38980553D01*
X119402423Y-39194501D01*
X119386000Y-39361248D01*
X119386000Y-39865178D01*
X119354939Y-39859000D01*
X119151061Y-39859000D01*
X118951102Y-39898774D01*
X118762744Y-39976795D01*
X118593226Y-40090063D01*
X118449063Y-40234226D01*
X118335795Y-40403744D01*
X118257774Y-40592102D01*
X118218000Y-40792061D01*
X118218000Y-40995939D01*
X118257774Y-41195898D01*
X118335795Y-41384256D01*
X118449063Y-41553774D01*
X118593226Y-41697937D01*
X118762744Y-41811205D01*
X118951102Y-41889226D01*
X119151061Y-41929000D01*
X119181576Y-41929000D01*
X119117009Y-41981989D01*
X119093210Y-42010988D01*
X119086198Y-42018000D01*
X119024061Y-42018000D01*
X118824102Y-42057774D01*
X118635744Y-42135795D01*
X118466226Y-42249063D01*
X118322063Y-42393226D01*
X118208795Y-42562744D01*
X118130774Y-42751102D01*
X118091000Y-42951061D01*
X115087000Y-42951061D01*
X115087000Y-37744000D01*
X135357000Y-37744000D01*
X135357001Y-56042928D01*
G37*
%TD.AperFunction*%
%TD*%
M02*
