%TF.GenerationSoftware,KiCad,Pcbnew,(5.1.9-0-10_14)*%
%TF.CreationDate,2021-02-02T14:33:23+08:00*%
%TF.ProjectId,WCH_Link,5743485f-4c69-46e6-9b2e-6b696361645f,rev?*%
%TF.SameCoordinates,Original*%
%TF.FileFunction,Legend,Top*%
%TF.FilePolarity,Positive*%
%FSLAX46Y46*%
G04 Gerber Fmt 4.6, Leading zero omitted, Abs format (unit mm)*
G04 Created by KiCad (PCBNEW (5.1.9-0-10_14)) date 2021-02-02 14:33:23*
%MOMM*%
%LPD*%
G01*
G04 APERTURE LIST*
%ADD10C,0.150000*%
%ADD11C,0.120000*%
G04 APERTURE END LIST*
D10*
X123396952Y-51014380D02*
X123396952Y-51728666D01*
X123349333Y-51871523D01*
X123254095Y-51966761D01*
X123111238Y-52014380D01*
X123016000Y-52014380D01*
X124349333Y-52014380D02*
X123873142Y-52014380D01*
X123873142Y-51014380D01*
X125254095Y-51919142D02*
X125206476Y-51966761D01*
X125063619Y-52014380D01*
X124968380Y-52014380D01*
X124825523Y-51966761D01*
X124730285Y-51871523D01*
X124682666Y-51776285D01*
X124635047Y-51585809D01*
X124635047Y-51442952D01*
X124682666Y-51252476D01*
X124730285Y-51157238D01*
X124825523Y-51062000D01*
X124968380Y-51014380D01*
X125063619Y-51014380D01*
X125206476Y-51062000D01*
X125254095Y-51109619D01*
X125968380Y-51014380D02*
X125968380Y-51728666D01*
X125920761Y-51871523D01*
X125825523Y-51966761D01*
X125682666Y-52014380D01*
X125587428Y-52014380D01*
X126920761Y-52014380D02*
X126444571Y-52014380D01*
X126444571Y-51014380D01*
X127825523Y-51919142D02*
X127777904Y-51966761D01*
X127635047Y-52014380D01*
X127539809Y-52014380D01*
X127396952Y-51966761D01*
X127301714Y-51871523D01*
X127254095Y-51776285D01*
X127206476Y-51585809D01*
X127206476Y-51442952D01*
X127254095Y-51252476D01*
X127301714Y-51157238D01*
X127396952Y-51062000D01*
X127539809Y-51014380D01*
X127635047Y-51014380D01*
X127777904Y-51062000D01*
X127825523Y-51109619D01*
X128539809Y-51014380D02*
X128539809Y-51728666D01*
X128492190Y-51871523D01*
X128396952Y-51966761D01*
X128254095Y-52014380D01*
X128158857Y-52014380D01*
X129492190Y-52014380D02*
X129016000Y-52014380D01*
X129016000Y-51014380D01*
X130396952Y-51919142D02*
X130349333Y-51966761D01*
X130206476Y-52014380D01*
X130111238Y-52014380D01*
X129968380Y-51966761D01*
X129873142Y-51871523D01*
X129825523Y-51776285D01*
X129777904Y-51585809D01*
X129777904Y-51442952D01*
X129825523Y-51252476D01*
X129873142Y-51157238D01*
X129968380Y-51062000D01*
X130111238Y-51014380D01*
X130206476Y-51014380D01*
X130349333Y-51062000D01*
X130396952Y-51109619D01*
X131111238Y-51014380D02*
X131111238Y-51728666D01*
X131063619Y-51871523D01*
X130968380Y-51966761D01*
X130825523Y-52014380D01*
X130730285Y-52014380D01*
X132063619Y-52014380D02*
X131587428Y-52014380D01*
X131587428Y-51014380D01*
X132968380Y-51919142D02*
X132920761Y-51966761D01*
X132777904Y-52014380D01*
X132682666Y-52014380D01*
X132539809Y-51966761D01*
X132444571Y-51871523D01*
X132396952Y-51776285D01*
X132349333Y-51585809D01*
X132349333Y-51442952D01*
X132396952Y-51252476D01*
X132444571Y-51157238D01*
X132539809Y-51062000D01*
X132682666Y-51014380D01*
X132777904Y-51014380D01*
X132920761Y-51062000D01*
X132968380Y-51109619D01*
X117803990Y-65760600D02*
X117726580Y-65721895D01*
X117610466Y-65721895D01*
X117494352Y-65760600D01*
X117416942Y-65838009D01*
X117378238Y-65915419D01*
X117339533Y-66070238D01*
X117339533Y-66186352D01*
X117378238Y-66341171D01*
X117416942Y-66418580D01*
X117494352Y-66495990D01*
X117610466Y-66534695D01*
X117687876Y-66534695D01*
X117803990Y-66495990D01*
X117842695Y-66457285D01*
X117842695Y-66186352D01*
X117687876Y-66186352D01*
X118655495Y-66457285D02*
X118616790Y-66495990D01*
X118500676Y-66534695D01*
X118423266Y-66534695D01*
X118307152Y-66495990D01*
X118229742Y-66418580D01*
X118191038Y-66341171D01*
X118152333Y-66186352D01*
X118152333Y-66070238D01*
X118191038Y-65915419D01*
X118229742Y-65838009D01*
X118307152Y-65760600D01*
X118423266Y-65721895D01*
X118500676Y-65721895D01*
X118616790Y-65760600D01*
X118655495Y-65799304D01*
X119003838Y-66534695D02*
X119003838Y-65721895D01*
X119197361Y-65721895D01*
X119313476Y-65760600D01*
X119390885Y-65838009D01*
X119429590Y-65915419D01*
X119468295Y-66070238D01*
X119468295Y-66186352D01*
X119429590Y-66341171D01*
X119390885Y-66418580D01*
X119313476Y-66495990D01*
X119197361Y-66534695D01*
X119003838Y-66534695D01*
X119700523Y-65721895D02*
X120164980Y-65721895D01*
X119932752Y-66534695D02*
X119932752Y-65721895D01*
X120900371Y-66534695D02*
X120629438Y-66147647D01*
X120435914Y-66534695D02*
X120435914Y-65721895D01*
X120745552Y-65721895D01*
X120822961Y-65760600D01*
X120861666Y-65799304D01*
X120900371Y-65876714D01*
X120900371Y-65992828D01*
X120861666Y-66070238D01*
X120822961Y-66108942D01*
X120745552Y-66147647D01*
X120435914Y-66147647D01*
X121171304Y-65721895D02*
X121674466Y-65721895D01*
X121403533Y-66031533D01*
X121519647Y-66031533D01*
X121597057Y-66070238D01*
X121635761Y-66108942D01*
X121674466Y-66186352D01*
X121674466Y-66379876D01*
X121635761Y-66457285D01*
X121597057Y-66495990D01*
X121519647Y-66534695D01*
X121287419Y-66534695D01*
X121210009Y-66495990D01*
X121171304Y-66457285D01*
X120405676Y-60239095D02*
X120908838Y-60239095D01*
X120637904Y-60548733D01*
X120754019Y-60548733D01*
X120831428Y-60587438D01*
X120870133Y-60626142D01*
X120908838Y-60703552D01*
X120908838Y-60897076D01*
X120870133Y-60974485D01*
X120831428Y-61013190D01*
X120754019Y-61051895D01*
X120521790Y-61051895D01*
X120444380Y-61013190D01*
X120405676Y-60974485D01*
X121141066Y-60239095D02*
X121412000Y-61051895D01*
X121682933Y-60239095D01*
X121876457Y-60239095D02*
X122379619Y-60239095D01*
X122108685Y-60548733D01*
X122224800Y-60548733D01*
X122302209Y-60587438D01*
X122340914Y-60626142D01*
X122379619Y-60703552D01*
X122379619Y-60897076D01*
X122340914Y-60974485D01*
X122302209Y-61013190D01*
X122224800Y-61051895D01*
X121992571Y-61051895D01*
X121915161Y-61013190D01*
X121876457Y-60974485D01*
X120792723Y-61608295D02*
X121257180Y-61608295D01*
X121024952Y-62421095D02*
X121024952Y-61608295D01*
X121450704Y-61608295D02*
X121992571Y-62421095D01*
X121992571Y-61608295D02*
X121450704Y-62421095D01*
X121276533Y-63790295D02*
X121005600Y-63403247D01*
X120812076Y-63790295D02*
X120812076Y-62977495D01*
X121121714Y-62977495D01*
X121199123Y-63016200D01*
X121237828Y-63054904D01*
X121276533Y-63132314D01*
X121276533Y-63248428D01*
X121237828Y-63325838D01*
X121199123Y-63364542D01*
X121121714Y-63403247D01*
X120812076Y-63403247D01*
X121547466Y-62977495D02*
X122089333Y-63790295D01*
X122089333Y-62977495D02*
X121547466Y-63790295D01*
X120792723Y-64385400D02*
X120715314Y-64346695D01*
X120599200Y-64346695D01*
X120483085Y-64385400D01*
X120405676Y-64462809D01*
X120366971Y-64540219D01*
X120328266Y-64695038D01*
X120328266Y-64811152D01*
X120366971Y-64965971D01*
X120405676Y-65043380D01*
X120483085Y-65120790D01*
X120599200Y-65159495D01*
X120676609Y-65159495D01*
X120792723Y-65120790D01*
X120831428Y-65082085D01*
X120831428Y-64811152D01*
X120676609Y-64811152D01*
X121179771Y-65159495D02*
X121179771Y-64346695D01*
X121644228Y-65159495D01*
X121644228Y-64346695D01*
X122031276Y-65159495D02*
X122031276Y-64346695D01*
X122224800Y-64346695D01*
X122340914Y-64385400D01*
X122418323Y-64462809D01*
X122457028Y-64540219D01*
X122495733Y-64695038D01*
X122495733Y-64811152D01*
X122457028Y-64965971D01*
X122418323Y-65043380D01*
X122340914Y-65120790D01*
X122224800Y-65159495D01*
X122031276Y-65159495D01*
X117320180Y-60239095D02*
X116933133Y-60239095D01*
X116894428Y-60626142D01*
X116933133Y-60587438D01*
X117010542Y-60548733D01*
X117204066Y-60548733D01*
X117281476Y-60587438D01*
X117320180Y-60626142D01*
X117358885Y-60703552D01*
X117358885Y-60897076D01*
X117320180Y-60974485D01*
X117281476Y-61013190D01*
X117204066Y-61051895D01*
X117010542Y-61051895D01*
X116933133Y-61013190D01*
X116894428Y-60974485D01*
X117591114Y-60239095D02*
X117862047Y-61051895D01*
X118132980Y-60239095D01*
X116642847Y-62421095D02*
X116642847Y-61608295D01*
X116836371Y-61608295D01*
X116952485Y-61647000D01*
X117029895Y-61724409D01*
X117068600Y-61801819D01*
X117107304Y-61956638D01*
X117107304Y-62072752D01*
X117068600Y-62227571D01*
X117029895Y-62304980D01*
X116952485Y-62382390D01*
X116836371Y-62421095D01*
X116642847Y-62421095D01*
X117455647Y-62421095D02*
X117455647Y-61608295D01*
X117997514Y-61608295D02*
X118152333Y-61608295D01*
X118229742Y-61647000D01*
X118307152Y-61724409D01*
X118345857Y-61879228D01*
X118345857Y-62150161D01*
X118307152Y-62304980D01*
X118229742Y-62382390D01*
X118152333Y-62421095D01*
X117997514Y-62421095D01*
X117920104Y-62382390D01*
X117842695Y-62304980D01*
X117803990Y-62150161D01*
X117803990Y-61879228D01*
X117842695Y-61724409D01*
X117920104Y-61647000D01*
X117997514Y-61608295D01*
X116991190Y-63712885D02*
X116952485Y-63751590D01*
X116836371Y-63790295D01*
X116758961Y-63790295D01*
X116642847Y-63751590D01*
X116565438Y-63674180D01*
X116526733Y-63596771D01*
X116488028Y-63441952D01*
X116488028Y-63325838D01*
X116526733Y-63171019D01*
X116565438Y-63093609D01*
X116642847Y-63016200D01*
X116758961Y-62977495D01*
X116836371Y-62977495D01*
X116952485Y-63016200D01*
X116991190Y-63054904D01*
X117726580Y-63790295D02*
X117339533Y-63790295D01*
X117339533Y-62977495D01*
X117997514Y-63790295D02*
X117997514Y-62977495D01*
X118461971Y-63790295D02*
X118113628Y-63325838D01*
X118461971Y-62977495D02*
X117997514Y-63441952D01*
X116855723Y-64385400D02*
X116778314Y-64346695D01*
X116662200Y-64346695D01*
X116546085Y-64385400D01*
X116468676Y-64462809D01*
X116429971Y-64540219D01*
X116391266Y-64695038D01*
X116391266Y-64811152D01*
X116429971Y-64965971D01*
X116468676Y-65043380D01*
X116546085Y-65120790D01*
X116662200Y-65159495D01*
X116739609Y-65159495D01*
X116855723Y-65120790D01*
X116894428Y-65082085D01*
X116894428Y-64811152D01*
X116739609Y-64811152D01*
X117242771Y-65159495D02*
X117242771Y-64346695D01*
X117707228Y-65159495D01*
X117707228Y-64346695D01*
X118094276Y-65159495D02*
X118094276Y-64346695D01*
X118287800Y-64346695D01*
X118403914Y-64385400D01*
X118481323Y-64462809D01*
X118520028Y-64540219D01*
X118558733Y-64695038D01*
X118558733Y-64811152D01*
X118520028Y-64965971D01*
X118481323Y-65043380D01*
X118403914Y-65120790D01*
X118287800Y-65159495D01*
X118094276Y-65159495D01*
D11*
%TO.C,REF\u002A\u002A*%
X120269000Y-70164000D02*
X120269000Y-67504000D01*
X120269000Y-70164000D02*
X133029000Y-70164000D01*
X133029000Y-70164000D02*
X133029000Y-67504000D01*
X120269000Y-67504000D02*
X133029000Y-67504000D01*
X117669000Y-67504000D02*
X118999000Y-67504000D01*
X117669000Y-68834000D02*
X117669000Y-67504000D01*
X113351000Y-58801000D02*
X116011000Y-58801000D01*
X113351000Y-58801000D02*
X113351000Y-66481000D01*
X113351000Y-66481000D02*
X116011000Y-66481000D01*
X116011000Y-58801000D02*
X116011000Y-66481000D01*
X116011000Y-56201000D02*
X116011000Y-57531000D01*
X114681000Y-56201000D02*
X116011000Y-56201000D01*
X134433000Y-58801000D02*
X137093000Y-58801000D01*
X134433000Y-58801000D02*
X134433000Y-66481000D01*
X134433000Y-66481000D02*
X137093000Y-66481000D01*
X137093000Y-58801000D02*
X137093000Y-66481000D01*
X137093000Y-56201000D02*
X137093000Y-57531000D01*
X135763000Y-56201000D02*
X137093000Y-56201000D01*
%TO.C,U2*%
X126130000Y-64140000D02*
X127390000Y-64140000D01*
X132950000Y-64140000D02*
X131690000Y-64140000D01*
X126130000Y-60380000D02*
X126130000Y-64140000D01*
X132950000Y-58130000D02*
X132950000Y-64140000D01*
%TO.C,U1*%
X133076000Y-51562000D02*
X133076000Y-49612000D01*
X133076000Y-51562000D02*
X133076000Y-53512000D01*
X122956000Y-51562000D02*
X122956000Y-49612000D01*
X122956000Y-51562000D02*
X122956000Y-55062000D01*
%TO.C,R6*%
X118236276Y-53579500D02*
X118745724Y-53579500D01*
X118236276Y-54624500D02*
X118745724Y-54624500D01*
%TO.C,R5*%
X118236276Y-55103500D02*
X118745724Y-55103500D01*
X118236276Y-56148500D02*
X118745724Y-56148500D01*
%TO.C,R4*%
X117587500Y-44323724D02*
X117587500Y-43814276D01*
X118632500Y-44323724D02*
X118632500Y-43814276D01*
%TO.C,R3*%
X118632500Y-39369276D02*
X118632500Y-39878724D01*
X117587500Y-39369276D02*
X117587500Y-39878724D01*
%TO.C,R2*%
X131840500Y-38480276D02*
X131840500Y-38989724D01*
X130795500Y-38480276D02*
X130795500Y-38989724D01*
%TO.C,R1*%
X120156500Y-48259276D02*
X120156500Y-48768724D01*
X119111500Y-48259276D02*
X119111500Y-48768724D01*
%TO.C,J2*%
X116461000Y-52892000D02*
X115661000Y-52892000D01*
X115661000Y-52892000D02*
X115661000Y-50232000D01*
X115661000Y-50232000D02*
X116781000Y-50232000D01*
X116781000Y-50232000D02*
X116781000Y-50307323D01*
X115661000Y-52457000D02*
X111661000Y-52457000D01*
X111661000Y-52457000D02*
X111661000Y-51937000D01*
X111661000Y-51937000D02*
X115661000Y-51937000D01*
X115661000Y-52397000D02*
X111661000Y-52397000D01*
X115661000Y-52277000D02*
X111661000Y-52277000D01*
X115661000Y-52157000D02*
X111661000Y-52157000D01*
X115661000Y-52037000D02*
X111661000Y-52037000D01*
X116461000Y-51562000D02*
X115661000Y-51562000D01*
X115661000Y-51187000D02*
X111661000Y-51187000D01*
X111661000Y-51187000D02*
X111661000Y-50667000D01*
X111661000Y-50667000D02*
X115661000Y-50667000D01*
X117981000Y-52197000D02*
X117981000Y-52957000D01*
X117981000Y-52957000D02*
X117221000Y-52957000D01*
%TO.C,J1*%
X129541000Y-38767000D02*
X129541000Y-36867000D01*
X129541000Y-42667000D02*
X129541000Y-40667000D01*
X120141000Y-38767000D02*
X120141000Y-36867000D01*
X120141000Y-42667000D02*
X120141000Y-40667000D01*
X129541000Y-36867000D02*
X120141000Y-36867000D01*
%TO.C,F1*%
X132722252Y-45414000D02*
X132199748Y-45414000D01*
X132722252Y-43994000D02*
X132199748Y-43994000D01*
%TO.C,D2*%
X118337000Y-59220000D02*
X118337000Y-56760000D01*
X118337000Y-56760000D02*
X116867000Y-56760000D01*
X116867000Y-56760000D02*
X116867000Y-59220000D01*
%TO.C,D1*%
X120115000Y-59220000D02*
X120115000Y-56760000D01*
X120115000Y-56760000D02*
X118645000Y-56760000D01*
X118645000Y-56760000D02*
X118645000Y-59220000D01*
%TO.C,C7*%
X123954000Y-64725733D02*
X123954000Y-65068267D01*
X122934000Y-64725733D02*
X122934000Y-65068267D01*
%TO.C,C6*%
X125478000Y-64725733D02*
X125478000Y-65068267D01*
X124458000Y-64725733D02*
X124458000Y-65068267D01*
%TO.C,C5*%
X121156000Y-48685267D02*
X121156000Y-48342733D01*
X122176000Y-48685267D02*
X122176000Y-48342733D01*
%TO.C,C4*%
X132505267Y-42928000D02*
X132162733Y-42928000D01*
X132505267Y-41908000D02*
X132162733Y-41908000D01*
%TO.C,C3*%
X125478000Y-59913733D02*
X125478000Y-60256267D01*
X124458000Y-59913733D02*
X124458000Y-60256267D01*
%TO.C,C2*%
X123954000Y-59899733D02*
X123954000Y-60242267D01*
X122934000Y-59899733D02*
X122934000Y-60242267D01*
%TO.C,C1*%
X133987000Y-38563733D02*
X133987000Y-38906267D01*
X132967000Y-38563733D02*
X132967000Y-38906267D01*
%TO.C,REF\u002A\u002A*%
D10*
X117546380Y-75628333D02*
X117070190Y-75961666D01*
X117546380Y-76199761D02*
X116546380Y-76199761D01*
X116546380Y-75818809D01*
X116594000Y-75723571D01*
X116641619Y-75675952D01*
X116736857Y-75628333D01*
X116879714Y-75628333D01*
X116974952Y-75675952D01*
X117022571Y-75723571D01*
X117070190Y-75818809D01*
X117070190Y-76199761D01*
X117022571Y-75199761D02*
X117022571Y-74866428D01*
X117546380Y-74723571D02*
X117546380Y-75199761D01*
X116546380Y-75199761D01*
X116546380Y-74723571D01*
X117022571Y-73961666D02*
X117022571Y-74295000D01*
X117546380Y-74295000D02*
X116546380Y-74295000D01*
X116546380Y-73818809D01*
X116546380Y-73295000D02*
X116784476Y-73295000D01*
X116689238Y-73533095D02*
X116784476Y-73295000D01*
X116689238Y-73056904D01*
X116974952Y-73437857D02*
X116784476Y-73295000D01*
X116974952Y-73152142D01*
X116546380Y-72533095D02*
X116784476Y-72533095D01*
X116689238Y-72771190D02*
X116784476Y-72533095D01*
X116689238Y-72295000D01*
X116974952Y-72675952D02*
X116784476Y-72533095D01*
X116974952Y-72390238D01*
X108267666Y-56713380D02*
X107934333Y-56237190D01*
X107696238Y-56713380D02*
X107696238Y-55713380D01*
X108077190Y-55713380D01*
X108172428Y-55761000D01*
X108220047Y-55808619D01*
X108267666Y-55903857D01*
X108267666Y-56046714D01*
X108220047Y-56141952D01*
X108172428Y-56189571D01*
X108077190Y-56237190D01*
X107696238Y-56237190D01*
X108696238Y-56189571D02*
X109029571Y-56189571D01*
X109172428Y-56713380D02*
X108696238Y-56713380D01*
X108696238Y-55713380D01*
X109172428Y-55713380D01*
X109934333Y-56189571D02*
X109601000Y-56189571D01*
X109601000Y-56713380D02*
X109601000Y-55713380D01*
X110077190Y-55713380D01*
X110601000Y-55713380D02*
X110601000Y-55951476D01*
X110362904Y-55856238D02*
X110601000Y-55951476D01*
X110839095Y-55856238D01*
X110458142Y-56141952D02*
X110601000Y-55951476D01*
X110743857Y-56141952D01*
X111362904Y-55713380D02*
X111362904Y-55951476D01*
X111124809Y-55856238D02*
X111362904Y-55951476D01*
X111601000Y-55856238D01*
X111220047Y-56141952D02*
X111362904Y-55951476D01*
X111505761Y-56141952D01*
X139890666Y-55951380D02*
X139557333Y-55475190D01*
X139319238Y-55951380D02*
X139319238Y-54951380D01*
X139700190Y-54951380D01*
X139795428Y-54999000D01*
X139843047Y-55046619D01*
X139890666Y-55141857D01*
X139890666Y-55284714D01*
X139843047Y-55379952D01*
X139795428Y-55427571D01*
X139700190Y-55475190D01*
X139319238Y-55475190D01*
X140319238Y-55427571D02*
X140652571Y-55427571D01*
X140795428Y-55951380D02*
X140319238Y-55951380D01*
X140319238Y-54951380D01*
X140795428Y-54951380D01*
X141557333Y-55427571D02*
X141224000Y-55427571D01*
X141224000Y-55951380D02*
X141224000Y-54951380D01*
X141700190Y-54951380D01*
X142224000Y-54951380D02*
X142224000Y-55189476D01*
X141985904Y-55094238D02*
X142224000Y-55189476D01*
X142462095Y-55094238D01*
X142081142Y-55379952D02*
X142224000Y-55189476D01*
X142366857Y-55379952D01*
X142985904Y-54951380D02*
X142985904Y-55189476D01*
X142747809Y-55094238D02*
X142985904Y-55189476D01*
X143224000Y-55094238D01*
X142843047Y-55379952D02*
X142985904Y-55189476D01*
X143128761Y-55379952D01*
%TO.C,U2*%
X129119380Y-62991904D02*
X129928904Y-62991904D01*
X130024142Y-62944285D01*
X130071761Y-62896666D01*
X130119380Y-62801428D01*
X130119380Y-62610952D01*
X130071761Y-62515714D01*
X130024142Y-62468095D01*
X129928904Y-62420476D01*
X129119380Y-62420476D01*
X129214619Y-61991904D02*
X129167000Y-61944285D01*
X129119380Y-61849047D01*
X129119380Y-61610952D01*
X129167000Y-61515714D01*
X129214619Y-61468095D01*
X129309857Y-61420476D01*
X129405095Y-61420476D01*
X129547952Y-61468095D01*
X130119380Y-62039523D01*
X130119380Y-61420476D01*
%TO.C,U1*%
X139787380Y-51942904D02*
X140596904Y-51942904D01*
X140692142Y-51895285D01*
X140739761Y-51847666D01*
X140787380Y-51752428D01*
X140787380Y-51561952D01*
X140739761Y-51466714D01*
X140692142Y-51419095D01*
X140596904Y-51371476D01*
X139787380Y-51371476D01*
X140787380Y-50371476D02*
X140787380Y-50942904D01*
X140787380Y-50657190D02*
X139787380Y-50657190D01*
X139930238Y-50752428D01*
X140025476Y-50847666D01*
X140073095Y-50942904D01*
%TO.C,R6*%
X120864333Y-54681380D02*
X120531000Y-54205190D01*
X120292904Y-54681380D02*
X120292904Y-53681380D01*
X120673857Y-53681380D01*
X120769095Y-53729000D01*
X120816714Y-53776619D01*
X120864333Y-53871857D01*
X120864333Y-54014714D01*
X120816714Y-54109952D01*
X120769095Y-54157571D01*
X120673857Y-54205190D01*
X120292904Y-54205190D01*
X121721476Y-53681380D02*
X121531000Y-53681380D01*
X121435761Y-53729000D01*
X121388142Y-53776619D01*
X121292904Y-53919476D01*
X121245285Y-54109952D01*
X121245285Y-54490904D01*
X121292904Y-54586142D01*
X121340523Y-54633761D01*
X121435761Y-54681380D01*
X121626238Y-54681380D01*
X121721476Y-54633761D01*
X121769095Y-54586142D01*
X121816714Y-54490904D01*
X121816714Y-54252809D01*
X121769095Y-54157571D01*
X121721476Y-54109952D01*
X121626238Y-54062333D01*
X121435761Y-54062333D01*
X121340523Y-54109952D01*
X121292904Y-54157571D01*
X121245285Y-54252809D01*
%TO.C,R5*%
X120991333Y-56205380D02*
X120658000Y-55729190D01*
X120419904Y-56205380D02*
X120419904Y-55205380D01*
X120800857Y-55205380D01*
X120896095Y-55253000D01*
X120943714Y-55300619D01*
X120991333Y-55395857D01*
X120991333Y-55538714D01*
X120943714Y-55633952D01*
X120896095Y-55681571D01*
X120800857Y-55729190D01*
X120419904Y-55729190D01*
X121896095Y-55205380D02*
X121419904Y-55205380D01*
X121372285Y-55681571D01*
X121419904Y-55633952D01*
X121515142Y-55586333D01*
X121753238Y-55586333D01*
X121848476Y-55633952D01*
X121896095Y-55681571D01*
X121943714Y-55776809D01*
X121943714Y-56014904D01*
X121896095Y-56110142D01*
X121848476Y-56157761D01*
X121753238Y-56205380D01*
X121515142Y-56205380D01*
X121419904Y-56157761D01*
X121372285Y-56110142D01*
%TO.C,R4*%
X122753380Y-41060666D02*
X122277190Y-41394000D01*
X122753380Y-41632095D02*
X121753380Y-41632095D01*
X121753380Y-41251142D01*
X121801000Y-41155904D01*
X121848619Y-41108285D01*
X121943857Y-41060666D01*
X122086714Y-41060666D01*
X122181952Y-41108285D01*
X122229571Y-41155904D01*
X122277190Y-41251142D01*
X122277190Y-41632095D01*
X122086714Y-40203523D02*
X122753380Y-40203523D01*
X121705761Y-40441619D02*
X122420047Y-40679714D01*
X122420047Y-40060666D01*
%TO.C,R3*%
X122753380Y-39155666D02*
X122277190Y-39489000D01*
X122753380Y-39727095D02*
X121753380Y-39727095D01*
X121753380Y-39346142D01*
X121801000Y-39250904D01*
X121848619Y-39203285D01*
X121943857Y-39155666D01*
X122086714Y-39155666D01*
X122181952Y-39203285D01*
X122229571Y-39250904D01*
X122277190Y-39346142D01*
X122277190Y-39727095D01*
X121753380Y-38822333D02*
X121753380Y-38203285D01*
X122134333Y-38536619D01*
X122134333Y-38393761D01*
X122181952Y-38298523D01*
X122229571Y-38250904D01*
X122324809Y-38203285D01*
X122562904Y-38203285D01*
X122658142Y-38250904D01*
X122705761Y-38298523D01*
X122753380Y-38393761D01*
X122753380Y-38679476D01*
X122705761Y-38774714D01*
X122658142Y-38822333D01*
%TO.C,R2*%
X126944380Y-39282666D02*
X126468190Y-39616000D01*
X126944380Y-39854095D02*
X125944380Y-39854095D01*
X125944380Y-39473142D01*
X125992000Y-39377904D01*
X126039619Y-39330285D01*
X126134857Y-39282666D01*
X126277714Y-39282666D01*
X126372952Y-39330285D01*
X126420571Y-39377904D01*
X126468190Y-39473142D01*
X126468190Y-39854095D01*
X126039619Y-38901714D02*
X125992000Y-38854095D01*
X125944380Y-38758857D01*
X125944380Y-38520761D01*
X125992000Y-38425523D01*
X126039619Y-38377904D01*
X126134857Y-38330285D01*
X126230095Y-38330285D01*
X126372952Y-38377904D01*
X126944380Y-38949333D01*
X126944380Y-38330285D01*
%TO.C,R1*%
X120086380Y-51474666D02*
X119610190Y-51808000D01*
X120086380Y-52046095D02*
X119086380Y-52046095D01*
X119086380Y-51665142D01*
X119134000Y-51569904D01*
X119181619Y-51522285D01*
X119276857Y-51474666D01*
X119419714Y-51474666D01*
X119514952Y-51522285D01*
X119562571Y-51569904D01*
X119610190Y-51665142D01*
X119610190Y-52046095D01*
X120086380Y-50522285D02*
X120086380Y-51093714D01*
X120086380Y-50808000D02*
X119086380Y-50808000D01*
X119229238Y-50903238D01*
X119324476Y-50998476D01*
X119372095Y-51093714D01*
%TO.C,J2*%
X109648666Y-52919380D02*
X109648666Y-53633666D01*
X109601047Y-53776523D01*
X109505809Y-53871761D01*
X109362952Y-53919380D01*
X109267714Y-53919380D01*
X110077238Y-53014619D02*
X110124857Y-52967000D01*
X110220095Y-52919380D01*
X110458190Y-52919380D01*
X110553428Y-52967000D01*
X110601047Y-53014619D01*
X110648666Y-53109857D01*
X110648666Y-53205095D01*
X110601047Y-53347952D01*
X110029619Y-53919380D01*
X110648666Y-53919380D01*
%TO.C,J1*%
X138096666Y-41108380D02*
X138096666Y-41822666D01*
X138049047Y-41965523D01*
X137953809Y-42060761D01*
X137810952Y-42108380D01*
X137715714Y-42108380D01*
X139096666Y-42108380D02*
X138525238Y-42108380D01*
X138810952Y-42108380D02*
X138810952Y-41108380D01*
X138715714Y-41251238D01*
X138620476Y-41346476D01*
X138525238Y-41394095D01*
%TO.C,F1*%
X127174666Y-41711571D02*
X126841333Y-41711571D01*
X126841333Y-42235380D02*
X126841333Y-41235380D01*
X127317523Y-41235380D01*
X128222285Y-42235380D02*
X127650857Y-42235380D01*
X127936571Y-42235380D02*
X127936571Y-41235380D01*
X127841333Y-41378238D01*
X127746095Y-41473476D01*
X127650857Y-41521095D01*
%TO.C,D2*%
X121356380Y-59158095D02*
X120356380Y-59158095D01*
X120356380Y-58920000D01*
X120404000Y-58777142D01*
X120499238Y-58681904D01*
X120594476Y-58634285D01*
X120784952Y-58586666D01*
X120927809Y-58586666D01*
X121118285Y-58634285D01*
X121213523Y-58681904D01*
X121308761Y-58777142D01*
X121356380Y-58920000D01*
X121356380Y-59158095D01*
X120451619Y-58205714D02*
X120404000Y-58158095D01*
X120356380Y-58062857D01*
X120356380Y-57824761D01*
X120404000Y-57729523D01*
X120451619Y-57681904D01*
X120546857Y-57634285D01*
X120642095Y-57634285D01*
X120784952Y-57681904D01*
X121356380Y-58253333D01*
X121356380Y-57634285D01*
%TO.C,D1*%
X122626380Y-59158095D02*
X121626380Y-59158095D01*
X121626380Y-58920000D01*
X121674000Y-58777142D01*
X121769238Y-58681904D01*
X121864476Y-58634285D01*
X122054952Y-58586666D01*
X122197809Y-58586666D01*
X122388285Y-58634285D01*
X122483523Y-58681904D01*
X122578761Y-58777142D01*
X122626380Y-58920000D01*
X122626380Y-59158095D01*
X122626380Y-57634285D02*
X122626380Y-58205714D01*
X122626380Y-57920000D02*
X121626380Y-57920000D01*
X121769238Y-58015238D01*
X121864476Y-58110476D01*
X121912095Y-58205714D01*
%TO.C,C7*%
X127230142Y-63158666D02*
X127277761Y-63206285D01*
X127325380Y-63349142D01*
X127325380Y-63444380D01*
X127277761Y-63587238D01*
X127182523Y-63682476D01*
X127087285Y-63730095D01*
X126896809Y-63777714D01*
X126753952Y-63777714D01*
X126563476Y-63730095D01*
X126468238Y-63682476D01*
X126373000Y-63587238D01*
X126325380Y-63444380D01*
X126325380Y-63349142D01*
X126373000Y-63206285D01*
X126420619Y-63158666D01*
X126325380Y-62825333D02*
X126325380Y-62158666D01*
X127325380Y-62587238D01*
%TO.C,C6*%
X128500142Y-63158666D02*
X128547761Y-63206285D01*
X128595380Y-63349142D01*
X128595380Y-63444380D01*
X128547761Y-63587238D01*
X128452523Y-63682476D01*
X128357285Y-63730095D01*
X128166809Y-63777714D01*
X128023952Y-63777714D01*
X127833476Y-63730095D01*
X127738238Y-63682476D01*
X127643000Y-63587238D01*
X127595380Y-63444380D01*
X127595380Y-63349142D01*
X127643000Y-63206285D01*
X127690619Y-63158666D01*
X127595380Y-62301523D02*
X127595380Y-62492000D01*
X127643000Y-62587238D01*
X127690619Y-62634857D01*
X127833476Y-62730095D01*
X128023952Y-62777714D01*
X128404904Y-62777714D01*
X128500142Y-62730095D01*
X128547761Y-62682476D01*
X128595380Y-62587238D01*
X128595380Y-62396761D01*
X128547761Y-62301523D01*
X128500142Y-62253904D01*
X128404904Y-62206285D01*
X128166809Y-62206285D01*
X128071571Y-62253904D01*
X128023952Y-62301523D01*
X127976333Y-62396761D01*
X127976333Y-62587238D01*
X128023952Y-62682476D01*
X128071571Y-62730095D01*
X128166809Y-62777714D01*
%TO.C,C5*%
X122023142Y-51474666D02*
X122070761Y-51522285D01*
X122118380Y-51665142D01*
X122118380Y-51760380D01*
X122070761Y-51903238D01*
X121975523Y-51998476D01*
X121880285Y-52046095D01*
X121689809Y-52093714D01*
X121546952Y-52093714D01*
X121356476Y-52046095D01*
X121261238Y-51998476D01*
X121166000Y-51903238D01*
X121118380Y-51760380D01*
X121118380Y-51665142D01*
X121166000Y-51522285D01*
X121213619Y-51474666D01*
X121118380Y-50569904D02*
X121118380Y-51046095D01*
X121594571Y-51093714D01*
X121546952Y-51046095D01*
X121499333Y-50950857D01*
X121499333Y-50712761D01*
X121546952Y-50617523D01*
X121594571Y-50569904D01*
X121689809Y-50522285D01*
X121927904Y-50522285D01*
X122023142Y-50569904D01*
X122070761Y-50617523D01*
X122118380Y-50712761D01*
X122118380Y-50950857D01*
X122070761Y-51046095D01*
X122023142Y-51093714D01*
%TO.C,C4*%
X127087333Y-40997142D02*
X127039714Y-41044761D01*
X126896857Y-41092380D01*
X126801619Y-41092380D01*
X126658761Y-41044761D01*
X126563523Y-40949523D01*
X126515904Y-40854285D01*
X126468285Y-40663809D01*
X126468285Y-40520952D01*
X126515904Y-40330476D01*
X126563523Y-40235238D01*
X126658761Y-40140000D01*
X126801619Y-40092380D01*
X126896857Y-40092380D01*
X127039714Y-40140000D01*
X127087333Y-40187619D01*
X127944476Y-40425714D02*
X127944476Y-41092380D01*
X127706380Y-40044761D02*
X127468285Y-40759047D01*
X128087333Y-40759047D01*
%TO.C,C3*%
X128500142Y-61380666D02*
X128547761Y-61428285D01*
X128595380Y-61571142D01*
X128595380Y-61666380D01*
X128547761Y-61809238D01*
X128452523Y-61904476D01*
X128357285Y-61952095D01*
X128166809Y-61999714D01*
X128023952Y-61999714D01*
X127833476Y-61952095D01*
X127738238Y-61904476D01*
X127643000Y-61809238D01*
X127595380Y-61666380D01*
X127595380Y-61571142D01*
X127643000Y-61428285D01*
X127690619Y-61380666D01*
X127595380Y-61047333D02*
X127595380Y-60428285D01*
X127976333Y-60761619D01*
X127976333Y-60618761D01*
X128023952Y-60523523D01*
X128071571Y-60475904D01*
X128166809Y-60428285D01*
X128404904Y-60428285D01*
X128500142Y-60475904D01*
X128547761Y-60523523D01*
X128595380Y-60618761D01*
X128595380Y-60904476D01*
X128547761Y-60999714D01*
X128500142Y-61047333D01*
%TO.C,C2*%
X127230142Y-61380666D02*
X127277761Y-61428285D01*
X127325380Y-61571142D01*
X127325380Y-61666380D01*
X127277761Y-61809238D01*
X127182523Y-61904476D01*
X127087285Y-61952095D01*
X126896809Y-61999714D01*
X126753952Y-61999714D01*
X126563476Y-61952095D01*
X126468238Y-61904476D01*
X126373000Y-61809238D01*
X126325380Y-61666380D01*
X126325380Y-61571142D01*
X126373000Y-61428285D01*
X126420619Y-61380666D01*
X126420619Y-60999714D02*
X126373000Y-60952095D01*
X126325380Y-60856857D01*
X126325380Y-60618761D01*
X126373000Y-60523523D01*
X126420619Y-60475904D01*
X126515857Y-60428285D01*
X126611095Y-60428285D01*
X126753952Y-60475904D01*
X127325380Y-61047333D01*
X127325380Y-60428285D01*
%TO.C,C1*%
X128119142Y-39155666D02*
X128166761Y-39203285D01*
X128214380Y-39346142D01*
X128214380Y-39441380D01*
X128166761Y-39584238D01*
X128071523Y-39679476D01*
X127976285Y-39727095D01*
X127785809Y-39774714D01*
X127642952Y-39774714D01*
X127452476Y-39727095D01*
X127357238Y-39679476D01*
X127262000Y-39584238D01*
X127214380Y-39441380D01*
X127214380Y-39346142D01*
X127262000Y-39203285D01*
X127309619Y-39155666D01*
X128214380Y-38203285D02*
X128214380Y-38774714D01*
X128214380Y-38489000D02*
X127214380Y-38489000D01*
X127357238Y-38584238D01*
X127452476Y-38679476D01*
X127500095Y-38774714D01*
%TD*%
M02*
