M48
; DRILL file {KiCad (5.1.9-0-10_14)} date Tuesday, February 02, 2021 at 02:33:22 PM
; FORMAT={-:-/ absolute / inch / decimal}
; #@! TF.CreationDate,2021-02-02T14:33:22+08:00
; #@! TF.GenerationSoftware,Kicad,Pcbnew,(5.1.9-0-10_14)
; #@! TF.FileFunction,Plated,1,2,PTH
FMAT,2
INCH
T1C0.0157
T2C0.0236
T3C0.0256
T4C0.0394
%
G90
G05
T1
X4.575Y-2.675
X4.61Y-2.635
X4.69Y-1.695
X4.695Y-1.61
X4.73Y-2.455
X4.78Y-2.44
X4.78Y-2.495
X4.785Y-2.205
X4.86Y-1.705
X4.875Y-1.835
X4.9Y-1.505
X4.905Y-1.6944
X4.915Y-1.98
X4.915Y-2.255
X4.94Y-1.505
X4.94Y-1.605
X4.965Y-1.705
X4.98Y-1.505
X5.005Y-2.375
X5.145Y-2.43
X5.145Y-2.475
X5.165Y-2.2
X5.19Y-2.43
X5.2Y-1.61
X5.205Y-2.195
X5.245Y-1.61
X5.2627Y-2.4223
X5.265Y-1.905
X5.275Y-2.66
X5.275Y-2.695
X5.275Y-2.73
X5.29Y-1.61
T3
X4.615Y-2.005
X4.615Y-2.055
T4
X4.515Y-2.265
X4.515Y-2.365
X4.515Y-2.465
X4.515Y-2.565
X4.685Y-2.71
X4.785Y-2.71
X4.885Y-2.71
X4.985Y-2.71
X5.085Y-2.71
X5.185Y-2.71
X5.345Y-2.265
X5.345Y-2.365
X5.345Y-2.465
X5.345Y-2.565
T2
G00X4.7449Y-1.5755
M15
G01X4.7449Y-1.5519
M16
G05
G00X4.7449Y-1.7499
M15
G01X4.7449Y-1.7066
M16
G05
G00X5.0851Y-1.5755
M15
G01X5.0851Y-1.5519
M16
G05
G00X5.0851Y-1.7499
M15
G01X5.0851Y-1.7066
M16
G05
T0
M30
